<mxfile host="app.diagrams.net" modified="2024-05-23T07:05:23.860Z" agent="Mozilla/5.0 (Macintosh; Intel Mac OS X 10_15_7) AppleWebKit/605.1.15 (KHTML, like Gecko) Version/17.5 Safari/605.1.15" etag="L3c5Mm_0JPhvJgdxA0NM" version="24.4.4" type="github">
  <diagram id="R2lEEEUBdFMjLlhIrx00" name="Page-1">
    <mxGraphModel dx="1546" dy="842" grid="1" gridSize="10" guides="1" tooltips="1" connect="1" arrows="1" fold="1" page="1" pageScale="1" pageWidth="850" pageHeight="1100" math="0" shadow="0" extFonts="Permanent Marker^https://fonts.googleapis.com/css?family=Permanent+Marker">
      <root>
        <mxCell id="0" />
        <mxCell id="1" parent="0" />
        <mxCell id="-uG2EdzhlWS2FhhZ6pxa-1" value="" style="rhombus;whiteSpace=wrap;html=1;" vertex="1" parent="1">
          <mxGeometry x="320" y="70" width="110" height="80" as="geometry" />
        </mxCell>
        <mxCell id="-uG2EdzhlWS2FhhZ6pxa-2" value="Mitarbeiter" style="rounded=0;whiteSpace=wrap;html=1;" vertex="1" parent="1">
          <mxGeometry x="70" y="80" width="140" height="60" as="geometry" />
        </mxCell>
        <mxCell id="-uG2EdzhlWS2FhhZ6pxa-6" value="" style="endArrow=none;html=1;rounded=0;exitX=1;exitY=0.5;exitDx=0;exitDy=0;entryX=0;entryY=0.5;entryDx=0;entryDy=0;" edge="1" parent="1" source="-uG2EdzhlWS2FhhZ6pxa-2" target="-uG2EdzhlWS2FhhZ6pxa-1">
          <mxGeometry width="50" height="50" relative="1" as="geometry">
            <mxPoint x="200" y="30" as="sourcePoint" />
            <mxPoint x="250" y="-20" as="targetPoint" />
          </mxGeometry>
        </mxCell>
        <mxCell id="-uG2EdzhlWS2FhhZ6pxa-7" value="1" style="edgeLabel;html=1;align=center;verticalAlign=middle;resizable=0;points=[];" vertex="1" connectable="0" parent="-uG2EdzhlWS2FhhZ6pxa-6">
          <mxGeometry x="-0.24" y="-3" relative="1" as="geometry">
            <mxPoint x="-32" y="-13" as="offset" />
          </mxGeometry>
        </mxCell>
        <mxCell id="-uG2EdzhlWS2FhhZ6pxa-8" value="" style="endArrow=none;html=1;rounded=0;exitX=1;exitY=0.5;exitDx=0;exitDy=0;entryX=0;entryY=0.5;entryDx=0;entryDy=0;" edge="1" parent="1" source="-uG2EdzhlWS2FhhZ6pxa-1" target="-uG2EdzhlWS2FhhZ6pxa-9">
          <mxGeometry width="50" height="50" relative="1" as="geometry">
            <mxPoint x="450" y="110" as="sourcePoint" />
            <mxPoint x="510" y="110" as="targetPoint" />
          </mxGeometry>
        </mxCell>
        <mxCell id="-uG2EdzhlWS2FhhZ6pxa-10" value="MC" style="edgeLabel;html=1;align=center;verticalAlign=middle;resizable=0;points=[];" vertex="1" connectable="0" parent="-uG2EdzhlWS2FhhZ6pxa-8">
          <mxGeometry x="-0.12" y="1" relative="1" as="geometry">
            <mxPoint x="36" y="-9" as="offset" />
          </mxGeometry>
        </mxCell>
        <mxCell id="-uG2EdzhlWS2FhhZ6pxa-9" value="Druckaufträge" style="rounded=0;whiteSpace=wrap;html=1;" vertex="1" parent="1">
          <mxGeometry x="530" y="80" width="140" height="60" as="geometry" />
        </mxCell>
        <mxCell id="-uG2EdzhlWS2FhhZ6pxa-11" value="Lehrer" style="rounded=0;whiteSpace=wrap;html=1;" vertex="1" parent="1">
          <mxGeometry x="290" y="300" width="120" height="60" as="geometry" />
        </mxCell>
        <mxCell id="-uG2EdzhlWS2FhhZ6pxa-18" value="Klasse" style="rounded=0;whiteSpace=wrap;html=1;" vertex="1" parent="1">
          <mxGeometry x="75" y="710" width="140" height="60" as="geometry" />
        </mxCell>
        <mxCell id="-uG2EdzhlWS2FhhZ6pxa-19" value="Fach" style="rounded=0;whiteSpace=wrap;html=1;" vertex="1" parent="1">
          <mxGeometry x="445" y="710" width="140" height="60" as="geometry" />
        </mxCell>
        <mxCell id="-uG2EdzhlWS2FhhZ6pxa-20" value="unterrichtet" style="rhombus;whiteSpace=wrap;html=1;" vertex="1" parent="1">
          <mxGeometry x="100" y="490" width="90" height="80" as="geometry" />
        </mxCell>
        <mxCell id="-uG2EdzhlWS2FhhZ6pxa-21" value="" style="endArrow=none;html=1;rounded=0;entryX=0.25;entryY=1;entryDx=0;entryDy=0;exitX=1;exitY=0;exitDx=0;exitDy=0;" edge="1" parent="1" source="-uG2EdzhlWS2FhhZ6pxa-20" target="-uG2EdzhlWS2FhhZ6pxa-11">
          <mxGeometry width="50" height="50" relative="1" as="geometry">
            <mxPoint x="250" y="460" as="sourcePoint" />
            <mxPoint x="305" y="460" as="targetPoint" />
          </mxGeometry>
        </mxCell>
        <mxCell id="-uG2EdzhlWS2FhhZ6pxa-22" value="M" style="edgeLabel;html=1;align=center;verticalAlign=middle;resizable=0;points=[];" vertex="1" connectable="0" parent="-uG2EdzhlWS2FhhZ6pxa-21">
          <mxGeometry x="-0.12" y="1" relative="1" as="geometry">
            <mxPoint x="46" y="-63" as="offset" />
          </mxGeometry>
        </mxCell>
        <mxCell id="-uG2EdzhlWS2FhhZ6pxa-23" value="" style="endArrow=none;html=1;rounded=0;exitX=0.5;exitY=0;exitDx=0;exitDy=0;entryX=0.5;entryY=1;entryDx=0;entryDy=0;" edge="1" parent="1" source="-uG2EdzhlWS2FhhZ6pxa-18" target="-uG2EdzhlWS2FhhZ6pxa-20">
          <mxGeometry width="50" height="50" relative="1" as="geometry">
            <mxPoint x="220" y="570" as="sourcePoint" />
            <mxPoint x="275" y="570" as="targetPoint" />
          </mxGeometry>
        </mxCell>
        <mxCell id="-uG2EdzhlWS2FhhZ6pxa-24" value="MC" style="edgeLabel;html=1;align=center;verticalAlign=middle;resizable=0;points=[];" vertex="1" connectable="0" parent="-uG2EdzhlWS2FhhZ6pxa-23">
          <mxGeometry x="-0.12" y="1" relative="1" as="geometry">
            <mxPoint x="-14" y="52" as="offset" />
          </mxGeometry>
        </mxCell>
        <mxCell id="-uG2EdzhlWS2FhhZ6pxa-25" value="hat Lehrbefähigung" style="rhombus;whiteSpace=wrap;html=1;" vertex="1" parent="1">
          <mxGeometry x="470" y="480" width="90" height="80" as="geometry" />
        </mxCell>
        <mxCell id="-uG2EdzhlWS2FhhZ6pxa-26" value="" style="endArrow=none;html=1;rounded=0;exitX=0.75;exitY=1;exitDx=0;exitDy=0;entryX=0;entryY=0;entryDx=0;entryDy=0;" edge="1" parent="1" source="-uG2EdzhlWS2FhhZ6pxa-11" target="-uG2EdzhlWS2FhhZ6pxa-25">
          <mxGeometry width="50" height="50" relative="1" as="geometry">
            <mxPoint x="490" y="510" as="sourcePoint" />
            <mxPoint x="600" y="510" as="targetPoint" />
          </mxGeometry>
        </mxCell>
        <mxCell id="-uG2EdzhlWS2FhhZ6pxa-27" value="M" style="edgeLabel;html=1;align=center;verticalAlign=middle;resizable=0;points=[];" vertex="1" connectable="0" parent="-uG2EdzhlWS2FhhZ6pxa-26">
          <mxGeometry x="-0.24" y="-3" relative="1" as="geometry">
            <mxPoint x="-10" y="-38" as="offset" />
          </mxGeometry>
        </mxCell>
        <mxCell id="-uG2EdzhlWS2FhhZ6pxa-28" value="" style="endArrow=none;html=1;rounded=0;exitX=0.5;exitY=1;exitDx=0;exitDy=0;entryX=0.5;entryY=0;entryDx=0;entryDy=0;" edge="1" parent="1" source="-uG2EdzhlWS2FhhZ6pxa-25" target="-uG2EdzhlWS2FhhZ6pxa-19">
          <mxGeometry width="50" height="50" relative="1" as="geometry">
            <mxPoint x="280" y="560" as="sourcePoint" />
            <mxPoint x="280" y="620" as="targetPoint" />
          </mxGeometry>
        </mxCell>
        <mxCell id="-uG2EdzhlWS2FhhZ6pxa-29" value="M" style="edgeLabel;html=1;align=center;verticalAlign=middle;resizable=0;points=[];" vertex="1" connectable="0" parent="-uG2EdzhlWS2FhhZ6pxa-28">
          <mxGeometry x="-0.24" y="-3" relative="1" as="geometry">
            <mxPoint x="18" y="83" as="offset" />
          </mxGeometry>
        </mxCell>
        <mxCell id="-uG2EdzhlWS2FhhZ6pxa-30" value="unterrichtet" style="rhombus;whiteSpace=wrap;html=1;" vertex="1" parent="1">
          <mxGeometry x="290" y="700" width="90" height="80" as="geometry" />
        </mxCell>
        <mxCell id="-uG2EdzhlWS2FhhZ6pxa-31" value="" style="endArrow=none;html=1;rounded=0;exitX=1;exitY=0.5;exitDx=0;exitDy=0;entryX=0;entryY=0.5;entryDx=0;entryDy=0;" edge="1" parent="1" source="-uG2EdzhlWS2FhhZ6pxa-18" target="-uG2EdzhlWS2FhhZ6pxa-30">
          <mxGeometry width="50" height="50" relative="1" as="geometry">
            <mxPoint x="210" y="680" as="sourcePoint" />
            <mxPoint x="320" y="680" as="targetPoint" />
          </mxGeometry>
        </mxCell>
        <mxCell id="-uG2EdzhlWS2FhhZ6pxa-32" value="M" style="edgeLabel;html=1;align=center;verticalAlign=middle;resizable=0;points=[];" vertex="1" connectable="0" parent="-uG2EdzhlWS2FhhZ6pxa-31">
          <mxGeometry x="-0.24" y="-3" relative="1" as="geometry">
            <mxPoint x="-24" y="-13" as="offset" />
          </mxGeometry>
        </mxCell>
        <mxCell id="-uG2EdzhlWS2FhhZ6pxa-33" value="" style="endArrow=none;html=1;rounded=0;exitX=1;exitY=0.5;exitDx=0;exitDy=0;entryX=0;entryY=0.5;entryDx=0;entryDy=0;" edge="1" parent="1" source="-uG2EdzhlWS2FhhZ6pxa-30" target="-uG2EdzhlWS2FhhZ6pxa-19">
          <mxGeometry width="50" height="50" relative="1" as="geometry">
            <mxPoint x="350" y="650" as="sourcePoint" />
            <mxPoint x="460" y="650" as="targetPoint" />
          </mxGeometry>
        </mxCell>
        <mxCell id="-uG2EdzhlWS2FhhZ6pxa-34" value="M" style="edgeLabel;html=1;align=center;verticalAlign=middle;resizable=0;points=[];" vertex="1" connectable="0" parent="-uG2EdzhlWS2FhhZ6pxa-33">
          <mxGeometry x="-0.24" y="-3" relative="1" as="geometry">
            <mxPoint x="25" y="-13" as="offset" />
          </mxGeometry>
        </mxCell>
        <mxCell id="-uG2EdzhlWS2FhhZ6pxa-35" value="&lt;u&gt;ID&lt;/u&gt;" style="ellipse;whiteSpace=wrap;html=1;" vertex="1" parent="1">
          <mxGeometry x="125" y="280" width="90" height="30" as="geometry" />
        </mxCell>
        <mxCell id="-uG2EdzhlWS2FhhZ6pxa-36" value="Vname" style="ellipse;whiteSpace=wrap;html=1;" vertex="1" parent="1">
          <mxGeometry x="215" y="220" width="90" height="30" as="geometry" />
        </mxCell>
        <mxCell id="-uG2EdzhlWS2FhhZ6pxa-38" value="Nname" style="ellipse;whiteSpace=wrap;html=1;" vertex="1" parent="1">
          <mxGeometry x="330" y="220" width="90" height="30" as="geometry" />
        </mxCell>
        <mxCell id="-uG2EdzhlWS2FhhZ6pxa-39" value="Geburtsd." style="ellipse;whiteSpace=wrap;html=1;" vertex="1" parent="1">
          <mxGeometry x="445" y="220" width="90" height="30" as="geometry" />
        </mxCell>
        <mxCell id="-uG2EdzhlWS2FhhZ6pxa-40" value="Adresse" style="ellipse;whiteSpace=wrap;html=1;" vertex="1" parent="1">
          <mxGeometry x="495" y="280" width="90" height="30" as="geometry" />
        </mxCell>
        <mxCell id="-uG2EdzhlWS2FhhZ6pxa-41" value="" style="endArrow=none;html=1;rounded=0;entryX=0;entryY=0.5;entryDx=0;entryDy=0;exitX=1;exitY=0.5;exitDx=0;exitDy=0;" edge="1" parent="1" source="-uG2EdzhlWS2FhhZ6pxa-11" target="-uG2EdzhlWS2FhhZ6pxa-40">
          <mxGeometry width="50" height="50" relative="1" as="geometry">
            <mxPoint x="515" y="360" as="sourcePoint" />
            <mxPoint x="565" y="310" as="targetPoint" />
          </mxGeometry>
        </mxCell>
        <mxCell id="-uG2EdzhlWS2FhhZ6pxa-43" value="" style="endArrow=none;html=1;rounded=0;entryX=0;entryY=1;entryDx=0;entryDy=0;exitX=1;exitY=0;exitDx=0;exitDy=0;" edge="1" parent="1" source="-uG2EdzhlWS2FhhZ6pxa-11" target="-uG2EdzhlWS2FhhZ6pxa-39">
          <mxGeometry width="50" height="50" relative="1" as="geometry">
            <mxPoint x="420" y="340" as="sourcePoint" />
            <mxPoint x="505" y="305" as="targetPoint" />
          </mxGeometry>
        </mxCell>
        <mxCell id="-uG2EdzhlWS2FhhZ6pxa-44" value="" style="endArrow=none;html=1;rounded=0;entryX=0.5;entryY=1;entryDx=0;entryDy=0;exitX=0.5;exitY=0;exitDx=0;exitDy=0;" edge="1" parent="1" source="-uG2EdzhlWS2FhhZ6pxa-11" target="-uG2EdzhlWS2FhhZ6pxa-38">
          <mxGeometry width="50" height="50" relative="1" as="geometry">
            <mxPoint x="430" y="350" as="sourcePoint" />
            <mxPoint x="515" y="315" as="targetPoint" />
          </mxGeometry>
        </mxCell>
        <mxCell id="-uG2EdzhlWS2FhhZ6pxa-45" value="" style="endArrow=none;html=1;rounded=0;entryX=0.5;entryY=1;entryDx=0;entryDy=0;exitX=0;exitY=0;exitDx=0;exitDy=0;" edge="1" parent="1" source="-uG2EdzhlWS2FhhZ6pxa-11" target="-uG2EdzhlWS2FhhZ6pxa-36">
          <mxGeometry width="50" height="50" relative="1" as="geometry">
            <mxPoint x="440" y="360" as="sourcePoint" />
            <mxPoint x="525" y="325" as="targetPoint" />
          </mxGeometry>
        </mxCell>
        <mxCell id="-uG2EdzhlWS2FhhZ6pxa-46" value="" style="endArrow=none;html=1;rounded=0;entryX=1;entryY=0.5;entryDx=0;entryDy=0;exitX=0;exitY=0.5;exitDx=0;exitDy=0;" edge="1" parent="1" source="-uG2EdzhlWS2FhhZ6pxa-11" target="-uG2EdzhlWS2FhhZ6pxa-35">
          <mxGeometry width="50" height="50" relative="1" as="geometry">
            <mxPoint x="450" y="370" as="sourcePoint" />
            <mxPoint x="535" y="335" as="targetPoint" />
          </mxGeometry>
        </mxCell>
        <mxCell id="-uG2EdzhlWS2FhhZ6pxa-47" value="&lt;u&gt;Name&lt;/u&gt;" style="ellipse;whiteSpace=wrap;html=1;" vertex="1" parent="1">
          <mxGeometry x="500" y="810" width="90" height="30" as="geometry" />
        </mxCell>
        <mxCell id="-uG2EdzhlWS2FhhZ6pxa-48" value="&lt;u&gt;Name&lt;/u&gt;" style="ellipse;whiteSpace=wrap;html=1;" vertex="1" parent="1">
          <mxGeometry x="30" y="810" width="90" height="30" as="geometry" />
        </mxCell>
        <mxCell id="-uG2EdzhlWS2FhhZ6pxa-49" value="Schülerszahl" style="ellipse;whiteSpace=wrap;html=1;" vertex="1" parent="1">
          <mxGeometry x="160" y="810" width="90" height="30" as="geometry" />
        </mxCell>
        <mxCell id="-uG2EdzhlWS2FhhZ6pxa-50" value="" style="endArrow=none;html=1;rounded=0;entryX=0.75;entryY=1;entryDx=0;entryDy=0;exitX=0.5;exitY=0;exitDx=0;exitDy=0;" edge="1" parent="1" source="-uG2EdzhlWS2FhhZ6pxa-47" target="-uG2EdzhlWS2FhhZ6pxa-19">
          <mxGeometry width="50" height="50" relative="1" as="geometry">
            <mxPoint x="400" y="480" as="sourcePoint" />
            <mxPoint x="450" y="430" as="targetPoint" />
          </mxGeometry>
        </mxCell>
        <mxCell id="-uG2EdzhlWS2FhhZ6pxa-51" value="" style="endArrow=none;html=1;rounded=0;entryX=0.75;entryY=1;entryDx=0;entryDy=0;exitX=0.5;exitY=0;exitDx=0;exitDy=0;" edge="1" parent="1" source="-uG2EdzhlWS2FhhZ6pxa-49" target="-uG2EdzhlWS2FhhZ6pxa-18">
          <mxGeometry width="50" height="50" relative="1" as="geometry">
            <mxPoint x="142.5" y="830" as="sourcePoint" />
            <mxPoint x="147.5" y="790" as="targetPoint" />
          </mxGeometry>
        </mxCell>
        <mxCell id="-uG2EdzhlWS2FhhZ6pxa-52" value="" style="endArrow=none;html=1;rounded=0;entryX=0.25;entryY=1;entryDx=0;entryDy=0;exitX=0.5;exitY=0;exitDx=0;exitDy=0;" edge="1" parent="1" source="-uG2EdzhlWS2FhhZ6pxa-48" target="-uG2EdzhlWS2FhhZ6pxa-18">
          <mxGeometry width="50" height="50" relative="1" as="geometry">
            <mxPoint x="125" y="830" as="sourcePoint" />
            <mxPoint x="130" y="790" as="targetPoint" />
          </mxGeometry>
        </mxCell>
      </root>
    </mxGraphModel>
  </diagram>
</mxfile>
